<?xml version="1.0" standalone="no"?>
<!DOCTYPE svg PUBLIC "-//W3C//DTD SVG 20010904//EN"
 "http://www.w3.org/TR/2001/REC-SVG-20010904/DTD/svg10.dtd">
<svg version="1.0" xmlns="http://www.w3.org/2000/svg"
 width="693.000000pt" height="498.000000pt" viewBox="0 0 693.000000 498.000000"
 preserveAspectRatio="xMidYMid meet">

<g transform="translate(0.000000,498.000000) scale(0.100000,-0.100000)"
fill="#000000" stroke="none">
<path d="M0 2490 l0 -2490 3465 0 3465 0 0 2490 0 2490 -3465 0 -3465 0 0
-2490z m3880 2030 c32 -32 24 -55 -41 -133 -176 -209 -212 -467 -100 -716 l19
-45 -35 -70 c-20 -39 -55 -105 -79 -147 -50 -87 -55 -115 -20 -130 27 -13 99
5 252 63 l82 30 89 -36 c155 -62 249 -80 408 -81 133 0 143 2 205 29 161 71
190 39 129 -146 -93 -282 -269 -542 -469 -697 -322 -249 -745 -316 -1258 -200
l-92 21 87 54 c49 31 97 64 108 76 l20 20 -20 -5 c-11 -4 -99 -26 -195 -50
l-175 -45 -447 -5 c-491 -5 -488 -6 -488 53 0 33 -4 29 155 132 83 53 141 102
235 197 153 154 218 247 269 383 307 815 742 1326 1231 1448 97 24 106 24 130
0z m258 -582 c30 -33 36 -70 18 -106 -16 -32 -34 -42 -71 -42 -37 0 -55 10
-71 42 -42 81 62 171 124 106z m-3034 -2880 c67 -168 124 -303 127 -300 3 4
61 143 129 310 l124 302 78 0 78 0 0 -490 0 -490 -65 0 -65 0 -2 321 -3 321
-134 -319 c-74 -175 -136 -320 -138 -322 -7 -9 -17 14 -143 320 l-129 314 -1
-317 0 -318 -70 0 -70 0 0 490 0 491 82 -3 82 -3 120 -307z m1777 302 c73 -14
179 -66 178 -88 0 -9 -13 -43 -27 -74 l-27 -58 -43 30 c-158 107 -391 23 -462
-168 -31 -82 -25 -206 14 -285 55 -113 167 -182 292 -180 61 1 140 27 176 59
9 9 21 13 26 10 15 -9 55 -124 47 -136 -10 -15 -93 -56 -145 -70 -25 -7 -79
-12 -120 -11 -193 1 -357 125 -426 320 -31 88 -33 230 -4 324 70 228 296 369
521 327z m389 -410 l0 -420 195 0 195 0 0 -75 0 -75 -260 0 -260 0 0 495 0
495 65 0 65 0 0 -420z m1059 -75 c105 -259 191 -476 191 -483 0 -8 -23 -12
-72 -12 l-73 0 -30 78 -31 77 -190 3 -190 2 -33 -80 -33 -80 -75 0 c-64 0 -74
2 -69 15 25 66 389 962 393 969 8 13 4 22 212 -489z m601 466 c61 -23 120 -66
120 -87 0 -13 -45 -111 -56 -123 -3 -3 -11 5 -20 17 -30 43 -103 76 -167 77
-55 0 -61 -2 -91 -36 -41 -44 -52 -95 -32 -143 19 -47 52 -66 133 -77 155 -22
237 -67 288 -160 25 -46 29 -65 30 -129 0 -128 -55 -213 -173 -268 -48 -22
-64 -24 -146 -20 -108 4 -177 32 -240 97 l-38 39 27 51 c16 28 31 51 35 51 4
0 15 -11 23 -24 9 -13 44 -38 78 -55 52 -26 74 -31 133 -31 53 0 79 5 103 20
106 64 102 219 -7 262 -14 5 -61 17 -105 25 -186 35 -278 125 -278 269 1 103
59 200 146 243 56 28 166 29 237 2z m722 -1 c54 -20 118 -71 118 -93 0 -7 -14
-36 -31 -65 l-30 -53 -44 40 c-74 68 -170 79 -226 25 -80 -77 -50 -202 54
-218 18 -3 61 -11 96 -17 166 -28 262 -128 263 -274 1 -109 -40 -192 -120
-245 -63 -41 -113 -53 -208 -48 -97 5 -168 35 -228 97 l-40 41 24 42 c33 62
37 64 60 35 11 -14 48 -39 82 -56 51 -26 73 -31 132 -31 116 0 176 54 176 157
0 88 -52 128 -198 153 -119 21 -202 73 -245 154 -32 61 -30 164 5 231 31 59
79 108 128 129 52 22 168 20 232 -4z m-3772 -337 c119 -287 123 -297 132 -277
4 10 39 93 77 184 l68 165 66 3 c37 2 67 -1 67 -5 -1 -4 -94 -240 -209 -523
l-207 -515 -67 -3 c-50 -2 -67 0 -67 10 0 7 43 121 96 253 l96 240 -106 262
c-58 144 -106 267 -106 272 0 7 25 11 64 11 l64 0 32 -77z"/>
<path d="M4111 963 c-7 -15 -30 -71 -51 -123 -21 -52 -46 -112 -54 -132 l-16
-38 131 0 c128 0 130 0 124 21 -4 12 -33 84 -64 161 -56 135 -58 138 -70 111z"/>
</g>
</svg>
